<svg id="fww-logo" xmlns="http://www.w3.org/2000/svg" xmlns:xlink="http://www.w3.org/1999/xlink" width="904.95" height="519.34" viewBox="0 0 904.95 519.34">
  <defs>
    <linearGradient id="linear-gradient" x1="911.72" y1="393.87" x2="729.54" y2="673.42" gradientUnits="userSpaceOnUse">
      <stop offset="0" stop-color="#5afdf2"/>
      <stop offset=".43" stop-color="#71aef4"/>
      <stop offset=".82" stop-color="#846cf5"/>
      <stop offset="1" stop-color="#8b53f6"/>
    </linearGradient>
    <linearGradient id="linear-gradient-2" x1="744.68" y1="309.6" x2="744.68" y2="634.24" xlink:href="#linear-gradient"/>
    <linearGradient id="linear-gradient-3" x1="695.77" y1="375.94" x2="506.75" y2="649.14" xlink:href="#linear-gradient"/>
    <linearGradient id="linear-gradient-4" x1="516.13" y1="309.59" x2="516.13" y2="634.24" xlink:href="#linear-gradient"/>
    <linearGradient id="linear-gradient-5" x1="464.47" y1="373.35" x2="281.87" y2="653.48" gradientUnits="userSpaceOnUse">
      <stop offset="0" stop-color="#5afdf2"/>
      <stop offset=".4" stop-color="#6fb4f4"/>
      <stop offset=".81" stop-color="#836ef5"/>
      <stop offset="1" stop-color="#8b53f6"/>
    </linearGradient>
    <linearGradient id="linear-gradient-6" x1="286.88" y1="309.66" x2="286.88" y2="634.24" xlink:href="#linear-gradient"/>
  </defs>
  <path id="w-6" d="M956.59 317.25l-82 237-26.34 76.15a5.72 5.72 0 01-5.4 3.85h-70.41a5.72 5.72 0 01-5.41-7.56l12.35-36.37L804 517.88l69.39-204.34a5.72 5.72 0 015.42-3.88h72.39a5.72 5.72 0 015.39 7.59z" transform="translate(-51.96 -114.9)" fill="url(#linear-gradient)"/>
  <path id="shadow-6" d="M874.63 554.24l-26.34 76.15a5.72 5.72 0 01-5.4 3.85h-35.08l-28.43-43.93-6.38-9.86 31-62.57c10.38 17.79 22.47 45.37 70.63 36.36z" transform="translate(-51.96 -114.9)" opacity=".3"/>
  <path id="w-5" d="M838.75 634.24h-70.32a5.73 5.73 0 01-5.36-3.71l-76.28-202.8-41.54-110.39a5.73 5.73 0 015.37-7.74h72.44a5.71 5.71 0 015.35 3.74l20 54.18 95.68 259a5.72 5.72 0 01-5.34 7.72z" transform="translate(-51.96 -114.9)" fill="url(#linear-gradient-2)"/>
  <path id="shadow-5" d="M748.43 367.57c-37.22-2.14-48.93 33.38-61.64 60.16l-20.55-73.27 10.9-44.84h45.92a5.71 5.71 0 015.35 3.74z" transform="translate(-51.96 -114.9)" opacity=".3"/>
  <path id="w-4" d="M724.47 317.21l-83.32 244.37-23.46 68.79a5.72 5.72 0 01-5.41 3.87h-71.69a5.73 5.73 0 01-5.42-7.55l17.07-50.52L573.59 513l.17-.5 67.27-199a5.73 5.73 0 015.42-3.89l72.6.06a5.72 5.72 0 015.42 7.54z" transform="translate(-51.96 -114.9)" fill="url(#linear-gradient-3)"/>
  <path id="shadow-4" d="M641.15 561.58l-23.46 68.79a5.72 5.72 0 01-5.41 3.87h-47.37l-12.67-58.07-.07-.32L573.59 513l.17-.5c16.24 30.09 23.77 52.5 67.39 49.08z" transform="translate(-51.96 -114.9)" opacity=".3"/>
  <path id="w-3" d="M608.31 634.24h-71.66a5.72 5.72 0 01-5.39-3.78L459 429.7l-28.48-79.2-11.95-33.2a5.72 5.72 0 015.38-7.65H498.69a5.71 5.71 0 015.4 3.84l19.5 55.7 90.12 257.5a5.72 5.72 0 01-5.4 7.55z" transform="translate(-51.96 -114.9)" fill="url(#linear-gradient-4)"/>
  <path id="shadow-3" d="M523.59 369.13c-37.42.38-47.5 19.53-64.58 60.56l-29-78.56.53-.63 34.25-40.88h33.92a5.71 5.71 0 015.4 3.84z" transform="translate(-51.96 -114.9)" opacity=".3"/>
  <path id="w-2" d="M500 317.28l-89.57 245.85-24.53 67.34a5.72 5.72 0 01-5.38 3.77h-70.43a5.72 5.72 0 01-5.39-7.61l21.77-62.1 18-51.29 70-199.76a5.71 5.71 0 015.39-3.83h74.7a5.72 5.72 0 015.44 7.63z" transform="translate(-51.96 -114.9)" fill="url(#linear-gradient-5)"/>
  <path id="shadow-2" d="M410.42 563.13l-24.52 67.34a5.72 5.72 0 01-5.38 3.77h-39.44l-14.61-69.71-3.8-18.16 21.78-33.13c9.45 17.01 25.07 53.27 65.97 49.89z" transform="translate(-51.96 -114.9)" opacity=".3"/>
  <path id="w-1" d="M376.61 634.24H306.1a5.7 5.7 0 01-5.4-3.83l-89-255.84-19.94-57.31a5.71 5.71 0 015.4-7.6h75.73a5.73 5.73 0 015.43 3.91L311.9 415 382 626.72a5.72 5.72 0 01-5.39 7.52z" transform="translate(-51.96 -114.9)" fill="url(#linear-gradient-6)"/>
  <path id="shadow-1" d="M311.9 415c-25-38.44-57.76-38.19-100.21-40.43L198 333.23l20.79-23.57h54.13a5.73 5.73 0 015.43 3.91z" transform="translate(-51.96 -114.9)" opacity=".3"/>
  <path d="M107.78 374.57h-50.1a5.72 5.72 0 01-5.68-5.72v-53.48a5.73 5.73 0 015.72-5.72h50.1a5.72 5.72 0 005.72-5.72v-42.29a237.54 237.54 0 016.42-55.79 126.7 126.7 0 0121.64-47q15.21-20.3 40.24-32.12t62.88-11.84a209.67 209.67 0 0122.66 1 109.54 109.54 0 0113.9 2.48 5.72 5.72 0 014.32 6l-4.5 57.36a5.72 5.72 0 01-7.05 5.11c-2.58-.61-5.25-1.15-8-1.64a97 97 0 00-16.57-1.35q-17.59 0-28.4 6.76a45.84 45.84 0 00-16.57 17.58 75.09 75.09 0 00-7.78 23.67 160.64 160.64 0 00-2 25v47a5.73 5.73 0 005.73 5.72H264a5.73 5.73 0 015.72 5.72v53.48a5.72 5.72 0 01-5.72 5.72h-63.63a5.73 5.73 0 00-5.73 5.72v248.3a5.72 5.72 0 01-5.72 5.72h-69.7a5.72 5.72 0 01-5.72-5.72V380.29a5.72 5.72 0 00-5.72-5.72z" transform="translate(-51.96 -114.9)" fill="#b44cff" id="f"/>
</svg>